# Blender v2.83.2 OBJ File: 'cola.blend'
# www.blender.org
mtllib cola.mtl
o cola_Cube.019_Cube.029
v -0.086720 0.191964 0.077955
v -0.118508 0.195347 -0.035906
v -0.099405 0.085612 -0.032987
v -0.071895 0.106805 0.080221
v 0.000776 0.059959 0.081405
v -0.005762 0.025247 -0.031461
v 0.104012 0.044341 -0.032078
v 0.085966 0.074776 0.080926
v 0.045330 0.279426 0.075487
v 0.051649 0.308049 -0.039087
v -0.058125 0.288955 -0.038470
v -0.039860 0.264609 0.075965
v 0.033642 0.161443 0.352663
v 0.013335 0.061412 0.355360
v 0.090993 0.074919 0.354924
v 0.133710 0.141141 0.353110
v 0.093969 0.145011 -0.302975
v 0.063540 0.097838 -0.301683
v 0.041701 0.129079 -0.363057
v 0.055907 0.151102 -0.363660
v 0.015874 0.124587 -0.362912
v -0.006157 0.138788 -0.363271
v -0.006194 0.137749 -0.402116
v 0.015837 0.123547 -0.401757
v -0.048597 0.173936 -0.303612
v -0.018167 0.221109 -0.304904
v 0.003555 0.186628 -0.364561
v -0.010651 0.164605 -0.363958
v 0.008220 0.088216 -0.301372
v -0.038970 0.118636 -0.302141
v 0.037152 0.230730 -0.305215
v 0.084342 0.200311 -0.304446
v 0.051413 0.176919 -0.364347
v 0.029381 0.191120 -0.364706
v -0.012906 0.133303 -0.401991
v 0.014262 0.115789 -0.401548
v 0.051375 0.175879 -0.403192
v 0.029344 0.190080 -0.403551
v 0.041663 0.128039 -0.401902
v 0.055870 0.150062 -0.402505
v 0.003518 0.185588 -0.403406
v -0.010688 0.163566 -0.402803
v 0.063630 0.148487 -0.402471
v 0.046111 0.121329 -0.401727
v 0.046072 0.120246 -0.442165
v 0.063591 0.147405 -0.442909
v 0.058088 0.180324 -0.403318
v 0.030919 0.197838 -0.403760
v -0.000930 0.192298 -0.403581
v -0.018449 0.165140 -0.402838
v 0.022552 0.155731 -0.443092
v 0.030880 0.196755 -0.444199
v 0.058049 0.179242 -0.443756
v -0.000969 0.191216 -0.444020
v -0.018488 0.164058 -0.443276
v -0.012945 0.132220 -0.442429
v 0.014223 0.114707 -0.441986
v -0.092336 0.187003 0.352100
v -0.078822 0.109373 0.354165
v -0.012575 0.066669 0.355245
v 0.007732 0.166700 0.352547
v 0.132826 0.147421 0.078936
v 0.164396 0.137949 -0.034642
v 0.145293 0.247684 -0.037561
v 0.118001 0.232580 0.076671
v -0.044360 0.279126 0.349588
v -0.087078 0.212904 0.351402
v 0.012990 0.192601 0.351849
v 0.033298 0.292633 0.349152
v 0.059208 0.287376 0.349267
v 0.038900 0.187344 0.351965
v 0.138968 0.167041 0.352412
v 0.125454 0.244672 0.350347
v 0.128386 0.231160 -0.241056
v 0.144880 0.136413 -0.238535
v -0.082891 0.091224 -0.237107
v -0.099384 0.185972 -0.239627
v 0.092744 0.055590 -0.236322
v -0.002037 0.039104 -0.235789
v -0.047248 0.266795 -0.241841
v 0.047533 0.283280 -0.242373
v 0.051493 0.303697 -0.201634
v -0.058281 0.284604 -0.201018
v -0.005918 0.020896 -0.194009
v 0.103856 0.039990 -0.194625
v 0.164240 0.133598 -0.197189
v 0.145136 0.243333 -0.200109
v -0.118664 0.190996 -0.198454
v -0.099562 0.081261 -0.195535
v 0.148229 0.257894 0.278651
v 0.128021 0.242188 0.190206
v 0.047764 0.293923 0.188898
v 0.052571 0.319557 0.277092
v -0.059565 0.300053 0.277722
v -0.046316 0.277559 0.189427
v -0.098068 0.197333 0.191624
v -0.121247 0.204431 0.280341
v 0.106060 0.050176 0.284252
v 0.092641 0.067914 0.194905
v 0.144393 0.148140 0.192708
v 0.167743 0.145798 0.281633
v -0.101734 0.092335 0.283323
v -0.081696 0.103285 0.194126
v -0.001440 0.051550 0.195434
v -0.006076 0.030671 0.284882
v 0.023248 0.175114 0.280987
vt 0.193300 0.659500
vt 0.216800 0.652400
vt 0.216800 0.719500
vt 0.193300 0.711600
vt 0.094900 0.688100
vt 0.055400 0.686200
vt 0.069600 0.624300
vt 0.105900 0.640100
vt 0.279000 0.810400
vt 0.298000 0.803300
vt 0.298100 0.870400
vt 0.279100 0.862500
vt 0.276900 0.952500
vt 0.216800 0.958600
vt 0.229400 0.912900
vt 0.271000 0.891300
vt 0.881800 0.662400
vt 0.881800 0.760000
vt 0.827700 0.730000
vt 0.827700 0.689100
vt 0.745100 0.689100
vt 0.745100 0.730000
vt 0.716600 0.730000
vt 0.716600 0.689100
vt 0.716600 0.661900
vt 0.716600 0.759400
vt 0.634300 0.729300
vt 0.634300 0.688500
vt 0.799200 0.662400
vt 0.799200 0.760000
vt 0.716600 0.857500
vt 0.716600 0.760000
vt 0.770700 0.789900
vt 0.770700 0.830800
vt 0.436500 0.352300
vt 0.380700 0.352300
vt 0.373800 0.342800
vt 0.442600 0.342800
vt 0.799200 0.789900
vt 0.799200 0.830800
vt 0.799200 0.730000
vt 0.799200 0.689100
vt 0.618000 0.729000
vt 0.618000 0.688200
vt 0.682400 0.373300
vt 0.682400 0.414700
vt 0.638100 0.414700
vt 0.638100 0.373300
vt 0.383900 0.433300
vt 0.439700 0.433300
vt 0.446500 0.442700
vt 0.377800 0.442700
vt 0.477500 0.408600
vt 0.477500 0.375100
vt 0.493200 0.370900
vt 0.493200 0.412300
vt 0.342900 0.377000
vt 0.342900 0.410500
vt 0.327200 0.414700
vt 0.327200 0.373300
vt 0.232200 0.392800
vt 0.199700 0.442700
vt 0.149200 0.414700
vt 0.149200 0.373300
vt 0.505200 0.384200
vt 0.505200 0.342800
vt 0.549500 0.342800
vt 0.549500 0.384200
vt 0.638100 0.373300
vt 0.638100 0.414700
vt 0.593800 0.414700
vt 0.593800 0.373300
vt 0.593800 0.373300
vt 0.593800 0.414700
vt 0.549500 0.414700
vt 0.549500 0.373300
vt 0.593800 0.342800
vt 0.638100 0.342800
vt 0.593800 0.342800
vt 0.315100 0.412300
vt 0.268500 0.442700
vt 0.770700 0.860800
vt 0.799200 0.860800
vt 0.662600 0.826100
vt 0.611700 0.757200
vt 0.799200 0.590700
vt 0.745100 0.659100
vt 0.716600 0.659100
vt 0.352300 0.916600
vt 0.310800 0.895100
vt 0.298100 0.849400
vt 0.358200 0.855400
vt 0.101400 0.737000
vt 0.063800 0.749200
vt 0.152800 0.781100
vt 0.129300 0.788200
vt 0.129300 0.721100
vt 0.152800 0.729000
vt 0.328900 0.793900
vt 0.370500 0.772300
vt 0.376400 0.833500
vt 0.316300 0.839600
vt 0.315100 0.370900
vt 0.264600 0.342800
vt 0.505200 0.414700
vt 0.549500 0.414700
vt 0.195800 0.342800
vt 0.682400 0.342800
vt 0.638100 0.342800
vt 0.745100 0.757700
vt 0.716600 0.757700
vt 0.827700 0.659100
vt 0.799200 0.659100
vt 0.666800 0.590700
vt 0.613400 0.658700
vt 0.881800 0.590700
vt 0.300500 0.611200
vt 0.360600 0.617200
vt 0.354700 0.678400
vt 0.313200 0.656900
vt 0.099700 0.601300
vt 0.129300 0.622300
vt 0.418900 0.660500
vt 0.401100 0.668400
vt 0.401100 0.601300
vt 0.418900 0.608400
vt 0.385100 0.606200
vt 0.385100 0.664100
vt 0.360600 0.654600
vt 0.360600 0.616900
vt 0.382700 0.854200
vt 0.382700 0.912200
vt 0.358200 0.902700
vt 0.358200 0.864900
vt 0.233300 0.714900
vt 0.234300 0.657200
vt 0.262500 0.666900
vt 0.261800 0.704500
vt 0.071900 0.860700
vt 0.072600 0.802800
vt 0.098700 0.812600
vt 0.098200 0.850400
vt 0.094500 0.760500
vt 0.113000 0.785100
vt 0.264800 0.613200
vt 0.282400 0.638300
vt 0.094500 0.900300
vt 0.113000 0.876200
vt 0.264800 0.752300
vt 0.282400 0.728900
vt 0.056200 0.798200
vt 0.055400 0.865300
vt 0.218000 0.652400
vt 0.216800 0.719200
vt 0.401100 0.668400
vt 0.401100 0.601300
vt 0.398700 0.916500
vt 0.398700 0.849400
vt 0.399200 0.760300
vt 0.417000 0.752300
vt 0.417000 0.819400
vt 0.399200 0.812300
vt 0.381700 0.717800
vt 0.368300 0.706700
vt 0.253400 0.601300
vt 0.081500 0.911200
vt 0.149200 0.342800
vt 0.149200 0.200200
vt 0.327200 0.200200
vt 0.327200 0.342800
vt 0.505200 0.095300
vt 0.505200 0.238000
vt 0.327200 0.238000
vt 0.327200 0.095300
vt 0.683300 0.095300
vt 0.683300 0.238000
vt 0.505200 0.238000
vt 0.505200 0.095300
vt 0.861300 0.095300
vt 0.861300 0.238000
vt 0.683300 0.238000
vt 0.683300 0.095300
vt 0.505200 0.342800
vt 0.327200 0.342800
vt 0.861300 0.342800
vt 0.683300 0.342800
vt 0.149200 0.095300
vt 0.327200 0.095300
vt 0.683300 0.342800
vt 0.505200 0.342800
vt 0.081500 0.749200
vt 0.242000 0.752300
vt 0.267700 0.765600
vt 0.246600 0.807900
vt 0.216800 0.802700
vt 0.149100 0.601300
vt 0.176000 0.614600
vt 0.159400 0.656900
vt 0.129300 0.651700
vt 0.197000 0.839300
vt 0.170100 0.825900
vt 0.186800 0.783700
vt 0.216800 0.788900
vt 0.186800 0.726100
vt 0.216800 0.720300
vt 0.163200 0.839300
vt 0.185200 0.853500
vt 0.156800 0.898500
vt 0.129300 0.892900
vt 0.246700 0.865400
vt 0.216900 0.871300
vt 0.158200 0.955800
vt 0.131000 0.961200
vt 0.159400 0.714500
vt 0.129300 0.720300
vt 0.128600 0.833100
vt 0.128600 0.917000
vt 0.113000 0.904400
vt 0.113000 0.846300
vt 0.081600 0.976100
vt 0.081600 0.911200
vt 0.107800 0.918100
vt 0.107800 0.963100
vt 0.216900 0.902400
vt 0.276900 0.871300
vt 0.430200 0.752300
vt 0.430200 0.836900
vt 0.417000 0.835200
vt 0.417000 0.776600
vt 0.358200 0.936700
vt 0.298200 0.905600
vt 0.081600 0.911200
vt 0.055400 0.963100
vt 0.055400 0.918100
vt 0.414400 0.849400
vt 0.414400 0.933300
vt 0.398700 0.931400
vt 0.398700 0.873300
vt 0.414400 0.934000
vt 0.414400 0.849400
vt 0.427500 0.862000
vt 0.427500 0.920600
vt 0.316400 0.783400
vt 0.376400 0.752300
vt 0.399200 0.752300
vt 0.399200 0.841100
vt 0.376400 0.833200
vt 0.376400 0.771600
vt 0.292600 0.871300
vt 0.292600 0.955200
vt 0.276900 0.942600
vt 0.276900 0.884500
vt 0.298100 0.849400
vt 0.113000 0.833100
vt 0.113000 0.749200
vt 0.128600 0.751100
vt 0.128600 0.809200
vt 0.208000 0.839300
vt 0.208000 0.928100
vt 0.185200 0.908700
vt 0.185200 0.847200
vt 0.360600 0.698400
vt 0.300600 0.667300
vt 0.282400 0.601300
vt 0.298100 0.772100
vt 0.208400 0.621200
vt 0.137700 0.819400
vt 0.129300 0.743400
vt 0.122100 0.689500
vt 0.183900 0.902400
vt 0.185200 0.954200
vn -0.9522 -0.1588 0.2611
vn 0.1660 -0.9452 0.2811
vn -0.1655 0.9589 0.2304
vn 0.0010 0.0268 0.9996
vn 0.7212 -0.4790 -0.5004
vn -0.5419 -0.8401 0.0230
vn -0.7222 0.4515 -0.5240
vn -0.4659 -0.7352 -0.4924
vn 0.4649 0.7077 -0.5320
vn 0.5419 0.8401 -0.0230
vn 0.8404 -0.5418 0.0137
vn -0.8404 0.5418 -0.0137
vn -0.0010 -0.0268 -0.9996
vn -0.1714 0.9848 -0.0262
vn 0.1714 -0.9848 0.0262
vn -0.1477 0.8320 -0.5347
vn 0.1467 -0.8595 -0.4897
vn -0.5236 -0.8053 0.2780
vn 0.9526 0.1725 0.2504
vn -0.9852 -0.1714 0.0055
vn 0.9852 0.1714 -0.0055
vn -0.8465 -0.1609 -0.5074
vn 0.8456 0.1334 -0.5169
vn 0.8127 -0.5169 0.2690
vn -0.8122 0.5306 0.2425
vn 0.7867 0.1208 -0.6054
vn -0.7878 -0.1530 -0.5966
vn 0.1364 -0.8031 -0.5800
vn -0.1376 0.7709 -0.6219
vn 0.4325 0.6552 -0.6194
vn -0.4336 -0.6874 -0.5826
vn -0.6722 0.4168 -0.6119
vn 0.6710 -0.4490 -0.5900
vn -0.1570 0.8889 -0.4303
vn 0.1563 -0.9107 -0.3824
vn 0.8997 0.1457 -0.4114
vn -0.9005 -0.1674 -0.4013
vn 0.5241 0.8190 0.2335
vn 0.7675 -0.5059 -0.3938
vn -0.4955 -0.7785 -0.3853
vn -0.7683 0.4841 -0.4188
vn 0.4948 0.7567 -0.4273
vn 0.5257 0.8088 -0.2637
vn -0.8158 0.5193 -0.2547
vn 0.8153 -0.5322 -0.2281
vn 0.9558 0.1598 -0.2468
vn -0.5261 -0.8217 -0.2191
vn -0.1666 0.9492 -0.2668
vn 0.1661 -0.9622 -0.2160
vn -0.9563 -0.1727 -0.2360
vn -0.9634 0.2004 0.1779
vn 0.1620 -0.9201 0.3567
vn 0.7930 -0.5021 0.3449
vn 0.1957 0.9681 0.1563
vn -0.9290 -0.1527 0.3372
vn -0.5109 -0.7835 0.3537
vn 0.9638 -0.1906 0.1866
vn -0.7924 0.5199 0.3190
vn -0.1954 -0.9584 0.2082
vn -0.1614 0.9378 0.3072
vn 0.9296 0.1705 0.3267
vn 0.5115 0.8013 0.3103
vn 0.5394 0.8337 -0.1182
vn -0.8367 0.5367 -0.1089
vn 0.8365 -0.5418 -0.0816
vn 0.9806 0.1680 -0.1008
vn -0.5396 -0.8388 -0.0723
vn -0.1708 0.9778 -0.1213
vn 0.1706 -0.9829 -0.0692
vn -0.9808 -0.1731 -0.0897
g cola_Cube.019_Cube.029_Material.026
usemtl Material.026
s 1
f 1/1/1 2/2/1 3/3/1 4/4/1
f 5/5/2 6/6/2 7/7/2 8/8/2
f 9/9/3 10/10/3 11/11/3 12/12/3
f 13/13/4 14/14/4 15/15/4 16/16/4
f 17/17/5 18/18/5 19/19/5 20/20/5
f 21/21/6 22/22/6 23/23/6 24/24/6
f 25/25/7 26/26/7 27/27/7 28/28/7
f 29/29/8 30/30/8 22/22/8 21/21/8
f 31/31/9 32/32/9 33/33/9 34/34/9
f 24/35/4 23/36/4 35/37/4 36/38/4
f 34/34/10 33/33/10 37/39/10 38/40/10
f 20/20/11 19/19/11 39/41/11 40/42/11
f 28/28/12 27/27/12 41/43/12 42/44/12
f 43/45/11 44/46/11 45/47/11 46/48/11
f 38/49/4 37/50/4 47/51/4 48/52/4
f 40/53/4 39/54/4 44/55/4 43/56/4
f 42/57/4 41/58/4 49/59/4 50/60/4
f 51/61/13 52/62/13 53/63/13 46/64/13
f 50/65/12 49/66/12 54/67/12 55/68/12
f 36/69/6 35/70/6 56/71/6 57/72/6
f 48/73/10 47/74/10 53/75/10 52/76/10
f 49/77/14 48/73/14 52/76/14 54/67/14
f 44/78/15 36/69/15 57/72/15 45/79/15
f 55/80/13 54/81/13 52/62/13 51/61/13
f 41/58/4 38/49/4 48/52/4 49/59/4
f 27/82/14 34/34/14 38/40/14 41/83/14
f 39/54/4 24/35/4 36/38/4 44/55/4
f 26/26/16 31/84/16 34/85/16 27/27/16
f 18/86/17 29/29/17 21/21/17 19/87/17
f 19/87/15 21/21/15 24/24/15 39/88/15
f 58/89/4 59/90/4 60/91/4 61/92/4
f 4/93/18 3/94/18 6/6/18 5/5/18
f 62/95/19 63/96/19 64/97/19 65/98/19
f 66/99/4 67/100/4 68/101/4 69/102/4
f 56/103/13 55/80/13 51/61/13 57/104/13
f 35/105/20 50/65/20 55/68/20 56/106/20
f 57/104/13 51/61/13 46/64/13 45/107/13
f 23/36/4 42/57/4 50/60/4 35/37/4
f 37/50/4 40/53/4 43/56/4 47/51/4
f 47/108/21 43/45/21 46/48/21 53/109/21
f 22/22/20 28/110/20 42/111/20 23/23/20
f 33/112/21 20/20/21 40/42/21 37/113/21
f 30/114/22 25/25/22 28/28/22 22/115/22
f 32/116/23 17/17/23 20/20/23 33/112/23
f 70/117/4 71/118/4 72/119/4 73/120/4
f 8/8/24 7/7/24 63/121/24 62/122/24
f 12/123/25 11/124/25 2/125/25 1/126/25
f 74/127/26 75/128/26 17/129/26 32/130/26
f 76/131/27 77/132/27 25/133/27 30/134/27
f 78/135/28 79/136/28 29/137/28 18/138/28
f 80/139/29 81/140/29 31/141/29 26/142/29
f 81/140/30 74/143/30 32/144/30 31/141/30
f 79/136/31 76/145/31 30/146/31 29/137/31
f 77/147/32 80/139/32 26/142/32 25/148/32
f 75/149/33 78/135/33 18/138/33 17/150/33
f 82/151/34 81/140/34 80/139/34 83/152/34
f 84/153/35 79/136/35 78/135/35 85/154/35
f 86/155/36 75/128/36 74/127/36 87/156/36
f 88/157/37 77/132/37 76/131/37 89/158/37
f 65/159/38 64/160/38 10/161/38 9/162/38
f 85/163/39 78/164/39 75/128/39 86/155/39
f 89/165/40 76/145/40 79/136/40 84/153/40
f 83/152/41 80/139/41 77/147/41 88/166/41
f 83/167/12 88/168/12 2/169/12 11/170/12
f 85/171/11 86/172/11 63/173/11 7/174/11
f 87/175/10 82/176/10 10/177/10 64/178/10
f 89/179/6 84/180/6 6/181/6 3/182/6
f 86/172/21 87/183/21 64/184/21 63/173/21
f 84/180/15 85/185/15 7/186/15 6/181/15
f 88/168/20 89/187/20 3/188/20 2/169/20
f 82/176/14 83/189/14 11/190/14 10/177/14
f 87/191/42 74/143/42 81/140/42 82/151/42
f 90/192/43 91/193/43 92/194/43 93/195/43
f 94/196/44 95/197/44 96/198/44 97/199/44
f 98/200/45 99/201/45 100/202/45 101/203/45
f 101/203/46 100/202/46 91/204/46 90/205/46
f 102/206/47 103/207/47 104/208/47 105/209/47
f 93/195/48 92/194/48 95/210/48 94/211/48
f 105/209/49 104/208/49 99/212/49 98/213/49
f 97/199/50 96/198/50 103/214/50 102/215/50
f 106/216/51 105/217/51 14/218/51 13/219/51
f 105/220/52 98/221/52 15/222/52 14/223/52
f 98/224/53 101/225/53 16/16/53 15/15/53
f 101/226/54 106/227/54 13/228/54 16/229/54
f 97/230/55 102/231/55 59/90/55 58/89/55
f 102/232/56 105/220/56 60/233/56 59/234/56
f 105/235/57 106/236/57 61/237/57 60/238/57
f 106/239/54 97/240/54 58/241/54 61/242/54
f 94/243/58 97/244/58 67/100/58 66/99/58
f 97/245/59 106/246/59 68/247/59 67/248/59
f 106/249/57 93/250/57 69/251/57 68/252/57
f 93/253/60 94/243/60 66/99/60 69/102/60
f 93/254/51 106/255/51 71/256/51 70/257/51
f 106/258/59 101/259/59 72/260/59 71/261/59
f 101/262/61 90/263/61 73/120/61 72/119/61
f 90/263/62 93/264/62 70/117/62 73/120/62
f 91/193/63 65/265/63 9/9/63 92/194/63
f 95/197/64 12/266/64 1/1/64 96/198/64
f 99/201/65 8/267/65 62/95/65 100/202/65
f 100/202/66 62/95/66 65/98/66 91/204/66
f 103/268/67 4/93/67 5/5/67 104/269/67
f 92/194/68 9/9/68 12/12/68 95/210/68
f 104/208/69 5/270/69 8/271/69 99/212/69
f 96/198/70 1/1/70 4/4/70 103/214/70
